<?xml version="1.0" encoding="UTF-8"?>
<svg version="1.1" xmlns="http://www.w3.org/2000/svg" width="1024" height="1024">
<path d="M0 0 C2.375 0.375 2.375 0.375 4.375 2.375 C5.01342773 4.82666016 5.01342773 4.82666016 5.55859375 7.9140625 C5.76258789 9.04465088 5.96658203 10.17523926 6.17675781 11.34008789 C6.38655273 12.54785889 6.59634766 13.75562988 6.8125 15 C7.25366388 17.47009538 7.69506915 19.94014767 8.13671875 22.41015625 C8.3486084 23.60914551 8.56049805 24.80813477 8.77880859 26.04345703 C9.40290299 29.53092311 10.06628607 33.00887452 10.74462891 36.48608398 C11.82102019 42.00828909 12.72614157 47.44688344 13.06640625 53.06640625 C13.34303066 55.57342753 13.34303066 55.57342753 14.33984375 58.6953125 C15.37761081 62.38428069 15.92534278 65.8854876 16.375 69.6875 C17.00256939 74.73335533 17.76156676 79.70417542 18.8125 84.6796875 C20.10846926 90.88954021 21.22523166 97.1366814 22.375 103.375 C22.5002002 104.04950195 22.62540039 104.72400391 22.75439453 105.41894531 C23.53683871 109.65250898 24.28269913 113.89088284 24.99560547 118.13671875 C25.24564332 119.6118455 25.50232597 121.08586359 25.76611328 122.55859375 C31.56102657 155.24563872 34.30780524 192.62838533 23.375 224.375 C22.87967983 225.88263897 22.38489749 227.39045473 21.890625 228.8984375 C17.81535242 241.08602071 12.44240149 251.62245345 5.375 262.375 C4.95734375 263.04402344 4.5396875 263.71304687 4.109375 264.40234375 C3.2519021 265.7621422 2.32261835 267.0764119 1.375 268.375 C0.715 268.375 0.055 268.375 -0.625 268.375 C-0.955 269.695 -1.285 271.015 -1.625 272.375 C-2.285 272.375 -2.945 272.375 -3.625 272.375 C-4.285 273.695 -4.945 275.015 -5.625 276.375 C-6.285 276.375 -6.945 276.375 -7.625 276.375 C-7.955 277.365 -8.285 278.355 -8.625 279.375 C-9.285 279.375 -9.945 279.375 -10.625 279.375 C-10.955 280.365 -11.285 281.355 -11.625 282.375 C-12.285 282.375 -12.945 282.375 -13.625 282.375 C-13.955 283.365 -14.285 284.355 -14.625 285.375 C-16.83876165 287.29900227 -19.04811113 289.09921639 -21.375 290.875 C-21.99632812 291.36097656 -22.61765625 291.84695313 -23.2578125 292.34765625 C-32.33400034 299.375 -32.33400034 299.375 -35.625 299.375 C-35.625 300.035 -35.625 300.695 -35.625 301.375 C-37.605 301.705 -39.585 302.035 -41.625 302.375 C-41.625 303.035 -41.625 303.695 -41.625 304.375 C-42.59179688 304.76171875 -43.55859375 305.1484375 -44.5546875 305.546875 C-45.49248047 305.92235474 -45.49248047 305.92235474 -46.44921875 306.30541992 C-47.82875665 306.85674239 -49.20897888 307.40635529 -50.58984375 307.9543457 C-53.51893811 309.11879759 -56.43393381 310.29109702 -59.3203125 311.55859375 C-65.33271268 314.17755451 -71.39439808 315.4888834 -77.81640625 316.6640625 C-80.52340036 317.16936807 -83.15226767 317.7364188 -85.82421875 318.37890625 C-113.4429336 324.54173582 -142.96732555 320.28510912 -170.625 316.375 C-173.1 321.325 -173.1 321.325 -175.625 326.375 C-176.285 326.375 -176.945 326.375 -177.625 326.375 C-177.89183594 327.24898437 -178.15867188 328.12296875 -178.43359375 329.0234375 C-182.45246692 340.3289889 -191.76723956 356.41831198 -202.625 362.375 C-206.72796524 363.01166702 -208.81539287 362.75396504 -212.5625 361 C-213.243125 360.46375 -213.92375 359.9275 -214.625 359.375 C-214.625 358.715 -214.625 358.055 -214.625 357.375 C-215.285 357.375 -215.945 357.375 -216.625 357.375 C-218.12486273 354.37527454 -218.1298832 352.71985121 -217.625 349.375 C-215.9743962 347.34446182 -214.20083484 345.63696095 -212.25390625 343.890625 C-210.51799932 342.45281263 -210.51799932 342.45281263 -209.625 340.375 C-208.965 340.375 -208.305 340.375 -207.625 340.375 C-207.50125 339.50875 -207.50125 339.50875 -207.375 338.625 C-206.41461772 335.74385316 -204.76345527 334.51345527 -202.625 332.375 C-201.56488057 330.40620677 -200.55029151 328.41064133 -199.625 326.375 C-198.965 326.375 -198.305 326.375 -197.625 326.375 C-197.37105469 325.52164062 -197.11710937 324.66828125 -196.85546875 323.7890625 C-195.12676114 318.99258486 -192.54547647 314.79537839 -189.98828125 310.3984375 C-188.41571703 307.58488329 -188.41571703 307.58488329 -188.8515625 305.1484375 C-189.10679687 304.56320312 -189.36203125 303.97796875 -189.625 303.375 C-189.975625 302.4675 -190.32625 301.56 -190.6875 300.625 C-190.996875 299.8825 -191.30625 299.14 -191.625 298.375 C-192.285 298.375 -192.945 298.375 -193.625 298.375 C-195.44345346 295.97150513 -197.14209533 293.56628679 -198.8125 291.0625 C-199.30790283 290.32990967 -199.80330566 289.59731934 -200.3137207 288.8425293 C-203.59880782 283.96493212 -206.83572465 279.05811306 -209.9453125 274.06640625 C-211.1458583 272.142741 -212.37291987 270.23552207 -213.6171875 268.33984375 C-218.05768909 261.44449883 -221.38565083 254.63785009 -224.25390625 247 C-225.49422746 243.72074619 -226.84513433 240.52362154 -228.25 237.3125 C-235.01695441 221.06747162 -238.17132248 203.98630696 -238.01611328 186.46557617 C-237.9999745 184.30909304 -238.01610955 182.15447549 -238.03515625 179.99804688 C-238.06667956 159.44878766 -232.34718103 140.37183734 -222.625 122.375 C-222.10679687 121.37339844 -221.58859375 120.37179687 -221.0546875 119.33984375 C-218.35027777 114.19296973 -215.4362374 109.49364879 -211.82421875 104.93359375 C-210.54431683 103.37279077 -210.54431683 103.37279077 -209.625 101.375 C-208.965 101.375 -208.305 101.375 -207.625 101.375 C-207.35171875 100.78589844 -207.0784375 100.19679688 -206.796875 99.58984375 C-203.73912654 93.81069916 -198.80308848 89.25856636 -193.625 85.375 C-192.965 85.375 -192.305 85.375 -191.625 85.375 C-191.625 84.715 -191.625 84.055 -191.625 83.375 C-190.1640625 82.0859375 -190.1640625 82.0859375 -188.25 80.75 C-187.62351563 80.30398438 -186.99703125 79.85796875 -186.3515625 79.3984375 C-184.625 78.375 -184.625 78.375 -182.625 78.375 C-182.625 77.715 -182.625 77.055 -182.625 76.375 C-170.13161755 67.42812612 -156.0542324 61.40518097 -141.625 56.375 C-140.46226562 55.96507812 -139.29953125 55.55515625 -138.1015625 55.1328125 C-122.6093175 49.99113466 -106.47240021 46.77106372 -90.55078125 43.25 C-85.21338986 42.06825086 -79.92196985 40.72532164 -74.625 39.375 C-73.53590332 39.10598877 -73.53590332 39.10598877 -72.42480469 38.83154297 C-62.44929668 36.36746507 -52.99652577 33.67148412 -43.625 29.375 C-42.91085937 29.09398437 -42.19671875 28.81296875 -41.4609375 28.5234375 C-29.95905155 23.91406748 -19.26403087 16.63154211 -10.4453125 7.9921875 C-8.625 6.375 -8.625 6.375 -6.625 6.375 C-6.625 5.715 -6.625 5.055 -6.625 4.375 C-4.51618402 1.71945396 -3.40990297 0.487129 0 0 Z M-13.1875 31.38671875 C-14.25061401 32.02516724 -14.25061401 32.02516724 -15.33520508 32.67651367 C-16.0908374 33.13388916 -16.84646973 33.59126465 -17.625 34.0625 C-39.05220448 46.7803966 -61.58536247 53.18419828 -85.77929688 58.5859375 C-90.38874193 59.61881245 -94.95961115 60.69000866 -99.5 62 C-104.5913939 63.46057815 -109.75430235 64.39231145 -114.97021484 65.28564453 C-119.02248534 65.99694195 -122.75310234 66.99654798 -126.625 68.375 C-128.35629887 68.95453685 -130.08812832 69.53248966 -131.8203125 70.109375 C-142.1112202 73.59072116 -152.14479638 76.99269085 -161.625 82.375 C-161.625 83.035 -161.625 83.695 -161.625 84.375 C-162.19605469 84.48328125 -162.76710937 84.5915625 -163.35546875 84.703125 C-165.94742383 85.47045077 -167.71428398 86.59283692 -169.9375 88.125 C-170.71609375 88.66125 -171.4946875 89.1975 -172.296875 89.75 C-173.06515625 90.28625 -173.8334375 90.8225 -174.625 91.375 C-175.33140625 91.849375 -176.0378125 92.32375 -176.765625 92.8125 C-178.42420702 93.94519016 -180.03053348 95.1537065 -181.625 96.375 C-181.625 97.035 -181.625 97.695 -181.625 98.375 C-182.16125 98.58125 -182.6975 98.7875 -183.25 99 C-186.54478009 100.90750426 -189.21863628 103.42319384 -191.625 106.375 C-191.625 107.035 -191.625 107.695 -191.625 108.375 C-193.11 108.87 -193.11 108.87 -194.625 109.375 C-196.52870965 111.61962186 -196.52870965 111.61962186 -198.3125 114.3125 C-198.93511719 115.20839844 -199.55773437 116.10429687 -200.19921875 117.02734375 C-201.79802982 119.20212388 -201.79802982 119.20212388 -201.625 121.375 C-202.285 121.375 -202.945 121.375 -203.625 121.375 C-208.51117703 129.49886229 -212.73953447 137.29427023 -215.625 146.375 C-215.88796875 147.12007813 -216.1509375 147.86515625 -216.421875 148.6328125 C-220.39665494 159.94876763 -222.0898114 170.29208434 -221.9375 182.3125 C-221.94072266 183.58029297 -221.94394531 184.84808594 -221.94726562 186.15429688 C-221.87944304 198.1835578 -220.20748546 209.47169618 -216.8125 221 C-216.54679199 221.91096436 -216.28108398 222.82192871 -216.00732422 223.76049805 C-214.06033297 230.26969409 -211.74175181 236.33091223 -208.625 242.375 C-207.98463452 243.68375121 -207.34682404 244.99375425 -206.7109375 246.3046875 C-202.23541839 255.51529138 -202.23541839 255.51529138 -196.98046875 264.29296875 C-195.81611297 266.08144608 -194.70876221 267.90680725 -193.61328125 269.73828125 C-193.25492188 270.33680908 -192.8965625 270.93533691 -192.52734375 271.55200195 C-191.48010658 273.30373134 -190.43722531 275.05806258 -189.39453125 276.8125 C-188.81058594 277.658125 -188.22664063 278.50375 -187.625 279.375 C-186.965 279.375 -186.305 279.375 -185.625 279.375 C-185.356875 280.1175 -185.08875 280.86 -184.8125 281.625 C-183.6642528 284.28409879 -182.58998625 286.25281485 -180.625 288.375 C-179.635 288.375 -178.645 288.375 -177.625 288.375 C-177.356875 287.81554687 -177.08875 287.25609375 -176.8125 286.6796875 C-174.24310537 281.42257085 -171.48930183 276.31360512 -168.5625 271.25 C-163.1226773 262.22621879 -163.1226773 262.22621879 -159.625 252.375 C-158.965 252.375 -158.305 252.375 -157.625 252.375 C-157.00625 251.22 -156.3875 250.065 -155.75 248.875 C-152.03676819 242.18696316 -147.9177189 235.74970272 -143.83105469 229.28613281 C-142.75918148 227.58762604 -141.69541091 225.88401201 -140.6328125 224.1796875 C-137.58163906 219.31137076 -134.41040692 214.64009015 -130.90234375 210.08984375 C-129.48180585 208.24219761 -129.48180585 208.24219761 -127.9375 205.5625 C-126.68689383 203.47815639 -125.32865538 202.07865538 -123.625 200.375 C-123.625 199.715 -123.625 199.055 -123.625 198.375 C-122.965 198.375 -122.305 198.375 -121.625 198.375 C-120.43648719 196.7496221 -120.43648719 196.7496221 -119.3125 194.6875 C-117.14122032 191.03872232 -114.62989325 188.37989325 -111.625 185.375 C-110.94533324 183.71359237 -110.27561095 182.04799959 -109.625 180.375 C-108.635 180.045 -107.645 179.715 -106.625 179.375 C-104.21504634 176.73958982 -104.21504634 176.73958982 -103.625 173.375 C-102.635 173.045 -101.645 172.715 -100.625 172.375 C-97.59222801 169.31991974 -97.59222801 169.31991974 -96.625 165.375 C-95.965 165.375 -95.305 165.375 -94.625 165.375 C-93.39331795 163.94358573 -92.16752002 162.5061681 -90.98828125 161.03125 C-88.50622797 158.01580419 -85.66759947 155.34569605 -82.8125 152.6875 C-81.40136223 151.42281729 -81.40136223 151.42281729 -81.625 149.375 C-80.965 149.375 -80.305 149.375 -79.625 149.375 C-79.625 148.715 -79.625 148.055 -79.625 147.375 C-78.6659375 146.9728125 -78.6659375 146.9728125 -77.6875 146.5625 C-75.29368314 145.48832248 -75.29368314 145.48832248 -74.625 142.375 C-73.635 142.045 -72.645 141.715 -71.625 141.375 C-71.625 140.715 -71.625 140.055 -71.625 139.375 C-70.965 139.375 -70.305 139.375 -69.625 139.375 C-67.95833333 138.04166667 -67.95833333 138.04166667 -66.625 136.375 C-66.625 135.715 -66.625 135.055 -66.625 134.375 C-65.965 134.375 -65.305 134.375 -64.625 134.375 C-64.625 133.715 -64.625 133.055 -64.625 132.375 C-64.04621094 132.11460937 -63.46742188 131.85421875 -62.87109375 131.5859375 C-60.47304558 130.29307675 -58.70281303 128.82774925 -56.6875 127 C-53.73678903 124.3581485 -50.74755363 121.81449502 -47.625 119.375 C-47.295 119.705 -46.965 120.035 -46.625 120.375 C-47.615 122.355 -47.615 122.355 -48.625 124.375 C-49.285 124.375 -49.945 124.375 -50.625 124.375 C-50.7796875 125.3340625 -50.7796875 125.3340625 -50.9375 126.3125 C-51.2778125 127.3334375 -51.2778125 127.3334375 -51.625 128.375 C-52.615 128.705 -53.605 129.035 -54.625 129.375 C-56.01990393 130.89463974 -56.01990393 130.89463974 -57.3125 132.8125 C-60.4005629 137.11400827 -63.71280957 141.19283705 -67.0859375 145.2734375 C-68.82194782 147.20978596 -68.82194782 147.20978596 -68.625 149.375 C-69.285 149.375 -69.945 149.375 -70.625 149.375 C-71.9856009 150.86136758 -71.9856009 150.86136758 -73.25 152.75 C-73.69601562 153.37648438 -74.14203125 154.00296875 -74.6015625 154.6484375 C-75.79496969 156.32722643 -75.79496969 156.32722643 -75.625 158.375 C-76.285 158.375 -76.945 158.375 -77.625 158.375 C-77.955 159.695 -78.285 161.015 -78.625 162.375 C-79.285 162.375 -79.945 162.375 -80.625 162.375 C-82.2708076 164.34339694 -82.2708076 164.34339694 -83.96875 166.9140625 C-84.63350342 167.88085938 -85.29825684 168.84765625 -85.9831543 169.84375 C-86.68996338 170.8853125 -87.39677246 171.926875 -88.125 173 C-89.57876517 175.11764205 -91.03319105 177.23483069 -92.48828125 179.3515625 C-93.19678223 180.38571289 -93.9052832 181.41986328 -94.63525391 182.48535156 C-97.15465566 186.14420299 -99.71973676 189.7679002 -102.3125 193.375 C-103.03824219 194.385625 -103.76398438 195.39625 -104.51171875 196.4375 C-105.66043281 198.03423377 -106.81551819 199.62677306 -108.00244141 201.1953125 C-110.8967589 204.8780495 -110.8967589 204.8780495 -111.625 209.375 C-112.285 209.375 -112.945 209.375 -113.625 209.375 C-115.42039484 211.94326457 -115.42039484 211.94326457 -117.1875 215.125 C-117.80753906 216.19234375 -118.42757812 217.2596875 -119.06640625 218.359375 C-120.32419375 220.7929889 -121.1522716 222.7069986 -121.625 225.375 C-122.285 225.375 -122.945 225.375 -123.625 225.375 C-129.50845475 235.63456202 -129.50845475 235.63456202 -135.2734375 245.9609375 C-136.36632289 247.91296979 -137.4806705 249.85297632 -138.6015625 251.7890625 C-138.95541016 252.40072266 -139.30925781 253.01238281 -139.67382812 253.64257812 C-140.69892131 255.41184059 -141.72825685 257.17864307 -142.7578125 258.9453125 C-144.62346974 262.37218919 -146.14767774 265.76886553 -147.625 269.375 C-143.01794163 267.80421248 -139.39698856 265.31052575 -135.4375 262.5625 C-129.68018293 258.65406047 -123.96505007 255.26794137 -117.625 252.375 C-115.93310547 251.56289063 -115.93310547 251.56289063 -114.20703125 250.734375 C-102.25687043 245.01238271 -90.17758671 239.93223889 -77.4296875 236.234375 C-74.75420929 235.41459059 -72.21793011 234.42214485 -69.625 233.375 C-58.35008378 229.5529945 -46.40865157 229.20920106 -34.625 228.375 C-35.95671983 232.37015948 -38.43395461 233.72711127 -41.625 236.375 C-41.625 237.035 -41.625 237.695 -41.625 238.375 C-42.36298828 238.49149902 -43.10097656 238.60799805 -43.86132812 238.72802734 C-46.6297993 239.37612351 -48.43261998 240.25527883 -50.84375 241.7265625 C-55.45516576 244.37660465 -60.07017018 246.1358155 -65.125 247.75 C-66.01501709 248.04108643 -66.90503418 248.33217285 -67.82202148 248.63208008 C-76.06322698 251.28436488 -84.39001361 253.62903266 -92.74609375 255.89013672 C-98.90726762 257.56485212 -104.96659007 259.42948558 -111.01074219 261.48828125 C-113.26937214 262.25437613 -115.53471285 262.98107897 -117.8125 263.6875 C-124.50828828 265.93155948 -130.9989423 268.69052697 -137.47802734 271.48828125 C-139.47320947 272.31230917 -141.47605969 273.0255137 -143.51953125 273.71875 C-152.16378631 277.09029044 -155.19095715 280.87714077 -159 289.1875 C-161.59011814 294.59217943 -161.59011814 294.59217943 -162.625 300.375 C-122.89778943 308.33044897 -78.98624521 307.19899369 -43.55078125 286.109375 C-41.2718391 284.75844 -39.01366716 283.51412108 -36.625 282.375 C-36.625 281.715 -36.625 281.055 -36.625 280.375 C-35.944375 280.16875 -35.26375 279.9625 -34.5625 279.75 C-28.24204852 276.79149079 -23.9280298 271.72471273 -19.625 266.375 C-18.29166667 265.04166667 -16.95833333 263.70833333 -15.625 262.375 C-11.47032642 257.99198988 -11.47032642 257.99198988 -9.625 252.375 C-8.965 252.375 -8.305 252.375 -7.625 252.375 C-7.295 251.055 -6.965 249.735 -6.625 248.375 C-5.965 248.375 -5.305 248.375 -4.625 248.375 C14.47781828 211.35098107 16.13191728 175.44722079 11.125 134.8125 C11.02276123 133.97507263 10.92052246 133.13764526 10.81518555 132.27484131 C9.60015949 122.53952893 7.95971877 112.97632052 5.86172485 103.39324951 C4.23509919 95.9155031 3.0138665 88.39886646 1.85089111 80.83724976 C-0.81212077 63.57353063 -4.03102958 46.46850881 -7.625 29.375 C-10.10591105 29.375 -11.07445094 30.10474896 -13.1875 31.38671875 Z " fill="#171717" transform="translate(383.625,352.625)"/>
<path d="M0 0 C10.92338529 9.01879504 15.69968294 20.19809763 18 34 C18 40.6 18 47.2 18 54 C-7.74 54 -33.48 54 -60 54 C-58.35139905 63.8916057 -56.5585656 73.85000551 -49 81 C-39.14105032 86.71038174 -29.28858597 88.98580706 -18 86.28125 C-11.54327543 83.84029315 -6.59353157 80.81523911 -3.125 74.6875 C-2.568125 73.3571875 -2.568125 73.3571875 -2 72 C4.43681228 72.51085812 9.95942424 73.72942897 16 76 C15.0327645 84.33031577 10.21656508 90.43715083 3.9375 95.8125 C-8.3082696 104.56243335 -23.17863582 106.16813084 -37.75 104.375 C-51.7589428 101.72559549 -62.45990712 94.95195955 -70.69140625 83.22265625 C-79.97116917 67.46090967 -81.4749398 47.75270714 -77.9375 30 C-73.91525325 15.59167008 -66.64283286 4.22018673 -53.77734375 -3.52734375 C-36.86431112 -12.49529495 -15.66780265 -10.82813818 0 0 Z M-51.75 16.59765625 C-57.58126943 22.76422367 -60 29.60382201 -60 38 C-40.53 38 -21.06 38 -1 38 C-2.20829352 27.12535829 -4.57652718 19.32908462 -13 12 C-26.21387483 3.77697718 -40.61533043 6.43229943 -51.75 16.59765625 Z " fill="#161616" transform="translate(598,516)"/>
<path d="M0 0 C7.71507676 5.8920435 12.55589253 12.97116148 14.06640625 22.578125 C14.15406522 25.28565363 14.19292846 27.96626201 14.17993164 30.6730957 C14.18007767 31.47361862 14.18022369 32.27414154 14.18037415 33.09892273 C14.1796798 35.7339452 14.17190981 38.36889619 14.1640625 41.00390625 C14.16219662 42.83521994 14.16077352 44.66653414 14.15977478 46.49784851 C14.15596297 51.30975735 14.1461441 56.12163584 14.1350708 60.93353271 C14.12482794 65.84696034 14.120271 70.76039289 14.11523438 75.67382812 C14.10452062 85.30860921 14.08693464 94.94335983 14.06640625 104.578125 C8.12640625 104.578125 2.18640625 104.578125 -3.93359375 104.578125 C-4.26359375 100.618125 -4.59359375 96.658125 -4.93359375 92.578125 C-5.77921875 93.650625 -6.62484375 94.723125 -7.49609375 95.828125 C-13.42108184 102.72670268 -22.01072082 106.37174389 -30.93359375 107.578125 C-43.85195644 108.37404308 -54.48892704 106.58750672 -64.93359375 98.578125 C-72.4232508 90.82041707 -75.29593459 81.60693251 -75.15234375 70.9453125 C-74.48980401 63.77568607 -71.54163817 56.98952245 -66.28515625 52.01953125 C-52.4862603 40.72696538 -31.26863569 39.83083655 -14.1484375 38.0703125 C-11.09279778 37.60249889 -8.69005108 36.96394025 -5.93359375 35.578125 C-3.98286127 31.67666004 -5.22574699 26.76470583 -5.93359375 22.578125 C-7.3374041 19.61764398 -7.3374041 19.61764398 -8.93359375 17.578125 C-8.93359375 16.918125 -8.93359375 16.258125 -8.93359375 15.578125 C-10.01640625 15.145 -10.01640625 15.145 -11.12109375 14.703125 C-12.84568436 14.01328876 -14.55828019 13.29110691 -16.24609375 12.515625 C-24.43499152 9.65903276 -33.33991786 10.12686011 -41.3046875 13.6171875 C-46.3089362 16.549734 -50.31069426 20.33232603 -52.93359375 25.578125 C-59.35350501 25.00746622 -64.94948838 22.90467591 -70.93359375 20.578125 C-69.78778856 12.62821742 -64.58810868 6.4562978 -58.30859375 1.703125 C-42.02869846 -8.86758802 -16.74395616 -10.23755699 0 0 Z M-9.90625 52.34765625 C-11.11994263 52.5950354 -11.11994263 52.5950354 -12.3581543 52.84741211 C-13.22867432 53.02667236 -14.09919434 53.20593262 -14.99609375 53.390625 C-20.22550159 54.46669891 -25.44352064 55.53177207 -30.72265625 56.3359375 C-43.46874806 58.14133432 -43.46874806 58.14133432 -53.59765625 65.55078125 C-56.29043802 69.6371957 -56.42911899 73.83009229 -55.93359375 78.578125 C-54.21707499 83.27596581 -52.11709379 85.85398544 -47.93359375 88.578125 C-39.22919992 92.33684052 -29.94879244 92.21555015 -20.93359375 89.578125 C-12.9049922 85.61161352 -7.91932349 80.07464911 -4.68359375 71.7578125 C-3.12735419 65.16000521 -3.65244987 58.30995913 -3.93359375 51.578125 C-6.04827602 51.578125 -7.83513223 51.92006915 -9.90625 52.34765625 Z " fill="#161616" transform="translate(710.93359375,513.421875)"/>
<path d="M0 0 C-0.60108576 5.65020618 -2.07528683 10.66164461 -4 16 C-4.68964844 15.90460938 -5.37929688 15.80921875 -6.08984375 15.7109375 C-12.2496209 14.98426969 -18.20606513 14.38610423 -24 17 C-30.14493469 23.45218142 -29 31.56367719 -29 40 C-20.75 40 -12.5 40 -4 40 C-4 45.28 -4 50.56 -4 56 C-12.25 56 -20.5 56 -29 56 C-29 87.02 -29 118.04 -29 150 C-35.27 150 -41.54 150 -48 150 C-48 118.98 -48 87.96 -48 56 C-55.26 56 -62.52 56 -70 56 C-70.020625 53.545625 -70.04125 51.09125 -70.0625 48.5625 C-70.071604 47.78849854 -70.08070801 47.01449707 -70.09008789 46.21704102 C-70.09724913 44.47778283 -70.05024702 42.73854696 -70 41 C-69 40 -69 40 -66.95874023 39.88647461 C-65.64691772 39.89432983 -65.64691772 39.89432983 -64.30859375 39.90234375 C-63.36435547 39.90556641 -62.42011719 39.90878906 -61.44726562 39.91210938 C-60.45404297 39.92048828 -59.46082031 39.92886719 -58.4375 39.9375 C-57.44041016 39.94201172 -56.44332031 39.94652344 -55.41601562 39.95117188 C-52.94395151 39.96299993 -50.47200482 39.97948151 -48 40 C-48.01571045 39.43603516 -48.0314209 38.87207031 -48.04760742 38.29101562 C-48.11061574 35.69411565 -48.14919598 33.09737725 -48.1875 30.5 C-48.21263672 29.613125 -48.23777344 28.72625 -48.26367188 27.8125 C-48.35044014 19.9455102 -46.66487054 13.44949414 -42 7 C-30.74642411 -2.66529152 -13.89683129 -6.94841564 0 0 Z " fill="#161616" transform="translate(811,468)"/>
<path d="M0 0 C5.94 0 11.88 0 18 0 C19 1 19 1 19.12304783 3.38756657 C19.12166514 4.99010367 19.12166514 4.99010367 19.12025452 6.62501526 C19.12162918 7.84644226 19.12300385 9.06786926 19.12442017 10.3263092 C19.12088056 11.69223047 19.11724574 13.05815148 19.11352539 14.42407227 C19.11324352 15.85277301 19.11340124 17.2814739 19.1139679 18.71017456 C19.11425589 22.60049972 19.10835887 26.49079431 19.10139394 30.38111234 C19.0951607 34.44238205 19.09455663 38.50365239 19.09336853 42.56492615 C19.09025512 50.26078933 19.08204161 57.95663838 19.07201904 65.65249532 C19.06085819 74.41172114 19.05534753 83.17094761 19.05032361 91.93017876 C19.03985901 109.95346075 19.02205896 127.97672873 19 146 C12.73 146 6.46 146 0 146 C0 97.82 0 49.64 0 0 Z " fill="#151515" transform="translate(476,472)"/>
<path d="M0 0 C0.99 0 1.98 0 3 0 C5.31439843 4.90703056 6.51575548 9.0500308 7.125 14.5 C7.34542969 16.37171875 7.34542969 16.37171875 7.5703125 18.28125 C9.91615935 42.36929232 9.59243816 66.14871157 7.1875 90.1875 C7.06334213 91.48071167 7.06334213 91.48071167 6.93667603 92.80004883 C6.69611863 95.25797018 6.43603755 97.71291139 6.16796875 100.16796875 C6.09593231 100.90202438 6.02389587 101.63608002 5.94967651 102.39237976 C5.47958948 106.40585084 4.80579362 109.03003505 2 112 C0.20569642 106.45261142 -0.51334137 101.17232097 -1 95.375 C-1.62288334 88.58569519 -2.39862228 81.87626571 -3.49609375 75.14453125 C-4.07038538 71.56077341 -4.57452996 67.97151989 -5.0625 64.375 C-5.21847656 63.22773438 -5.37445313 62.08046875 -5.53515625 60.8984375 C-6.64949866 51.55294399 -7.18199784 42.35169862 -7.1875 32.9375 C-7.20586914 31.27750977 -7.20586914 31.27750977 -7.22460938 29.58398438 C-7.23975467 21.03698965 -6.67117055 12.75975276 -2.9375 4.9375 C-2.59589844 4.20402344 -2.25429687 3.47054688 -1.90234375 2.71484375 C-1 1 -1 1 0 0 Z " fill="#171717" transform="translate(253,442)"/>
<path d="M0 0 C4.16884941 2.04785585 6.28187228 3.73164682 8 8 C8.70031352 12.93476739 8.51450496 16.91162413 6.375 21.4375 C3.19382399 24.86982149 0.62278139 26.8446108 -4.17578125 27.12890625 C-10.00499734 26.80560519 -12.99387647 25.20154419 -17 21 C-19.54676486 17.52713882 -19.3628022 14.20850557 -19 10 C-15.46974746 0.52405898 -9.50847765 -1.39420493 0 0 Z " fill="#161616" transform="translate(837,593)"/>
</svg>
